<svg width="32" height="32" viewBox="0 0 32 32" fill="none" xmlns="http://www.w3.org/2000/svg">
<rect width="32" height="32" fill="white"/>
<path d="M26.9712 16C26.9712 22.0593 22.0591 26.9714 15.9997 26.9714C9.9404 26.9714 5.02832 22.0593 5.02832 16C5.02832 9.94064 9.9404 5.02856 15.9997 5.02856C22.0591 5.02856 26.9712 9.94064 26.9712 16Z" fill="#D9D9D9"/>
<path fill-rule="evenodd" clip-rule="evenodd" d="M15.9997 25.6C21.3017 25.6 25.5997 21.3019 25.5997 16C25.5997 10.6981 21.3017 6.39999 15.9997 6.39999C10.6978 6.39999 6.39975 10.6981 6.39975 16C6.39975 21.3019 10.6978 25.6 15.9997 25.6ZM15.9997 26.9714C22.0591 26.9714 26.9712 22.0593 26.9712 16C26.9712 9.94064 22.0591 5.02856 15.9997 5.02856C9.9404 5.02856 5.02832 9.94064 5.02832 16C5.02832 22.0593 9.9404 26.9714 15.9997 26.9714Z" fill="black"/>
<path fill-rule="evenodd" clip-rule="evenodd" d="M12.1211 12.1211C12.4781 11.7641 13.057 11.7641 13.4141 12.1211L19.8791 18.5861C20.2361 18.9431 20.2361 19.522 19.8791 19.8791C19.522 20.2361 18.9431 20.2361 18.5861 19.8791L12.1211 13.4141C11.764 13.0571 11.764 12.4782 12.1211 12.1211Z" fill="black"/>
<path fill-rule="evenodd" clip-rule="evenodd" d="M19.8789 12.1211C20.2359 12.4781 20.2359 13.057 19.8789 13.4141L13.4139 19.8791C13.0569 20.2361 12.478 20.2361 12.1209 19.8791C11.7639 19.522 11.7639 18.9431 12.1209 18.5861L18.5859 12.1211C18.9429 11.764 19.5218 11.764 19.8789 12.1211Z" fill="black"/>
</svg>
