<svg width="32" height="32" viewBox="0 0 32 32" fill="none" xmlns="http://www.w3.org/2000/svg">
<rect width="32" height="32" fill="white"/>
<path d="M26.9712 16C26.9712 22.0593 22.0591 26.9714 15.9997 26.9714C9.9404 26.9714 5.02832 22.0593 5.02832 16C5.02832 9.94064 9.9404 5.02856 15.9997 5.02856C22.0591 5.02856 26.9712 9.94064 26.9712 16Z" fill="#D9D9D9"/>
<path fill-rule="evenodd" clip-rule="evenodd" d="M15.9997 25.6C21.3017 25.6 25.5997 21.3019 25.5997 16C25.5997 10.6981 21.3017 6.39999 15.9997 6.39999C10.6978 6.39999 6.39975 10.6981 6.39975 16C6.39975 21.3019 10.6978 25.6 15.9997 25.6ZM15.9997 26.9714C22.0591 26.9714 26.9712 22.0593 26.9712 16C26.9712 9.94064 22.0591 5.02856 15.9997 5.02856C9.9404 5.02856 5.02832 9.94064 5.02832 16C5.02832 22.0593 9.9404 26.9714 15.9997 26.9714Z" fill="black"/>
<path fill-rule="evenodd" clip-rule="evenodd" d="M10.0566 14.2571C10.0566 13.7048 10.5044 13.2571 11.0566 13.2571H13.9424C14.4473 13.2571 14.8566 13.6664 14.8566 14.1714C14.8566 14.6763 14.4473 15.0857 13.9424 15.0857H13.1782L15.8101 17.7176C16.1672 18.0746 16.7461 18.0746 17.1031 17.7176L20.6101 14.2106C20.9672 13.8535 21.5461 13.8535 21.9031 14.2106C22.2602 14.5676 22.2602 15.1465 21.9031 15.5036L18.3961 19.0106C17.325 20.0817 15.5883 20.0817 14.5172 19.0106L11.8852 16.3786V17.1428C11.8852 17.6477 11.4759 18.0571 10.9709 18.0571C10.466 18.0571 10.0566 17.6477 10.0566 17.1428V14.2571Z" fill="black"/>
</svg>
