<svg width="32" height="32" viewBox="0 0 32 32" fill="none" xmlns="http://www.w3.org/2000/svg">
<g clip-path="url(#clip0_1562_7231)">
<rect width="32" height="32" fill="white"/>
<path d="M26.9712 16C26.9712 22.0593 22.0591 26.9714 15.9997 26.9714C9.9404 26.9714 5.02832 22.0593 5.02832 16C5.02832 9.94064 9.9404 5.02856 15.9997 5.02856C22.0591 5.02856 26.9712 9.94064 26.9712 16Z" fill="#D9D9D9"/>
<path fill-rule="evenodd" clip-rule="evenodd" d="M15.9997 25.6C21.3017 25.6 25.5997 21.3019 25.5997 16C25.5997 10.6981 21.3017 6.39999 15.9997 6.39999C10.6978 6.39999 6.39975 10.6981 6.39975 16C6.39975 21.3019 10.6978 25.6 15.9997 25.6ZM15.9997 26.9714C22.0591 26.9714 26.9712 22.0593 26.9712 16C26.9712 9.94064 22.0591 5.02856 15.9997 5.02856C9.9404 5.02856 5.02832 9.94064 5.02832 16C5.02832 22.0593 9.9404 26.9714 15.9997 26.9714Z" fill="black"/>
<path fill-rule="evenodd" clip-rule="evenodd" d="M10.9467 11.4627C12.1318 9.99554 13.9166 9.14282 15.8026 9.14282H16.5633C18.7486 9.14282 21.0684 10.045 22.216 12.1623C23.0419 13.6861 23.8814 15.9314 23.0119 17.9601C22.813 18.4242 22.2755 18.6392 21.8114 18.4403C21.3473 18.2414 21.1323 17.7039 21.3312 17.2398C21.8426 16.0466 21.3981 14.4906 20.6084 13.0337C19.8797 11.6893 18.3155 10.9714 16.5633 10.9714H15.8026C14.4691 10.9714 13.2071 11.5743 12.3693 12.6117C10.8861 14.448 11.1104 17.1263 12.8784 18.6903L13.4859 19.2276V18.5143C13.4859 18.0093 13.8952 17.6 14.4001 17.6C14.9051 17.6 15.3144 18.0093 15.3144 18.5143V21.1714C15.3144 21.7237 14.8667 22.1714 14.3144 22.1714H11.6573C11.1523 22.1714 10.743 21.7621 10.743 21.2571C10.743 20.7522 11.1523 20.3428 11.6573 20.3428H11.9867L11.6668 20.0599C9.16631 17.8479 8.84902 14.0599 10.9467 11.4627Z" fill="black"/>
</g>
<defs>
<clipPath id="clip0_1562_7231">
<rect width="32" height="32" fill="white"/>
</clipPath>
</defs>
</svg>
