<svg width="32" height="32" viewBox="0 0 32 32" fill="none" xmlns="http://www.w3.org/2000/svg">
<rect width="32" height="32" fill="white"/>
<path d="M26.9712 16C26.9712 22.0593 22.0591 26.9714 15.9997 26.9714C9.9404 26.9714 5.02832 22.0593 5.02832 16C5.02832 9.94064 9.9404 5.02856 15.9997 5.02856C22.0591 5.02856 26.9712 9.94064 26.9712 16Z" fill="#D9D9D9"/>
<path fill-rule="evenodd" clip-rule="evenodd" d="M15.9997 25.6C21.3017 25.6 25.5997 21.3019 25.5997 16C25.5997 10.6981 21.3017 6.39999 15.9997 6.39999C10.6978 6.39999 6.39975 10.6981 6.39975 16C6.39975 21.3019 10.6978 25.6 15.9997 25.6ZM15.9997 26.9714C22.0591 26.9714 26.9712 22.0593 26.9712 16C26.9712 9.94064 22.0591 5.02856 15.9997 5.02856C9.9404 5.02856 5.02832 9.94064 5.02832 16C5.02832 22.0593 9.9404 26.9714 15.9997 26.9714Z" fill="black"/>
<path fill-rule="evenodd" clip-rule="evenodd" d="M16.0002 10.5143C16.5052 10.5143 16.9145 10.9236 16.9145 11.4286V15.6213L19.3896 18.0964C19.7466 18.4534 19.7466 19.0323 19.3896 19.3894C19.0325 19.7464 18.4536 19.7464 18.0966 19.3894L15.4876 16.7804C15.2304 16.5232 15.0859 16.1744 15.0859 15.8106V11.4286C15.0859 10.9236 15.4953 10.5143 16.0002 10.5143Z" fill="black"/>
</svg>
