<svg width="32" height="32" viewBox="0 0 32 32" fill="none" xmlns="http://www.w3.org/2000/svg">
<rect width="32" height="32" fill="white"/>
<ellipse cx="24.4571" cy="22.6286" rx="4.34286" ry="3.88571" fill="#D9D9D9"/>
<path d="M24.2928 17.1731C21.196 17.1731 18.6768 19.6923 18.6768 22.7891C18.6768 25.8859 21.196 28.4051 24.2928 28.4051C27.3895 28.4051 29.9088 25.8859 29.9088 22.7891C29.9088 19.6923 27.3895 17.1731 24.2928 17.1731ZM24.2928 26.5331C22.2283 26.5331 20.5488 24.8535 20.5488 22.7891C20.5488 20.7247 22.2283 19.0451 24.2928 19.0451C26.3572 19.0451 28.0368 20.7247 28.0368 22.7891C28.0368 24.8535 26.3572 26.5331 24.2928 26.5331Z" fill="black"/>
<path fill-rule="evenodd" clip-rule="evenodd" d="M26.5901 26.9715L20.6472 19.6572L22.0664 18.5042L28.0093 25.8184L26.5901 26.9715Z" fill="black"/>
<path d="M17.7267 25.5754H4.13596C3.61921 25.5754 3.2002 25.9945 3.2002 26.5112C3.2002 27.028 3.61921 27.447 4.13596 27.447H17.7267C18.2434 27.447 18.6624 27.0279 18.6624 26.5112C18.6624 25.9945 18.2434 25.5754 17.7267 25.5754Z" fill="black"/>
<path fill-rule="evenodd" clip-rule="evenodd" d="M7.72634 19.2C8.23129 19.2 8.64062 19.6093 8.64062 20.1142V23.7714C8.64062 24.2763 8.23129 24.6857 7.72634 24.6857C7.22139 24.6857 6.81205 24.2763 6.81205 23.7714V20.1142C6.81205 19.6093 7.22139 19.2 7.72634 19.2Z" fill="black"/>
<path d="M8.18359 11.8857L10.4693 10.9714L12.2979 11.4286L14.5836 11.8857L15.0407 17.3714H12.755H9.09788L8.41217 16.2286L8.18359 11.8857Z" fill="#268822"/>
<path fill-rule="evenodd" clip-rule="evenodd" d="M8.64107 15.6857C8.64107 16.238 9.08879 16.6857 9.64107 16.6857H10.9268V23.7714C10.9268 24.2763 10.5174 24.6857 10.0125 24.6857C9.50755 24.6857 9.09821 24.2763 9.09821 23.7714V18.5142H8.18393C7.42651 18.5142 6.8125 17.9002 6.8125 17.1428V12.0907C6.8125 11.5862 7.08952 11.1224 7.53373 10.8832L9.59641 10.1418C10.9268 9.59995 12.0696 9.82852 13.173 10.2028C13.9046 10.4734 14.3148 10.6251 15.0464 10.8956C15.4677 11.1414 15.7268 11.5925 15.7268 12.0802V17.1428C15.7268 17.9002 15.1128 18.5142 14.3554 18.5142H13.4411V23.7714C13.4411 24.2763 13.0317 24.6857 12.5268 24.6857C12.0218 24.6857 11.6125 24.2763 11.6125 23.7714V16.6857H12.8982C13.4505 16.6857 13.8982 16.238 13.8982 15.6857V13.0001C13.8982 12.6011 13.6617 12.2389 13.2879 12.0995C12.961 11.9776 12.5627 11.8432 12.2516 11.7823C11.6125 11.6571 10.9268 11.6571 10.4633 11.7518C10.2138 11.8028 9.70458 11.9763 9.28774 12.1256C8.89703 12.2656 8.64107 12.6381 8.64107 13.0531V15.6857Z" fill="black"/>
<path fill-rule="evenodd" clip-rule="evenodd" d="M12.7557 18.7428H9.55566V16.6857H12.7557V18.7428Z" fill="black"/>
<path d="M12.1263 6.85712C12.1263 7.26738 11.7938 7.59997 11.3835 7.59997C10.9732 7.59997 10.6406 7.26738 10.6406 6.85712C10.6406 6.44685 10.9732 6.11426 11.3835 6.11426C11.7938 6.11426 12.1263 6.44685 12.1263 6.85712Z" fill="#28A228" stroke="black" stroke-width="4"/>
</svg>
